<svg xmlns="http://www.w3.org/2000/svg" xmlns:xlink="http://www.w3.org/1999/xlink" viewBox="0 0 176.58 106.85"><defs><style>.cls-1,.cls-2{fill:none;}.cls-2{stroke:#fff;stroke-linecap:round;stroke-linejoin:round;stroke-width:1.5px;}.cls-3{clip-path:url(#clip-path);}.cls-4{fill:#fff;}</style><clipPath id="clip-path"><path class="cls-1" d="M95.45,97.8h0L117,76.27c11.38-11.38,11.78-11,14.8-27.3l-5.59-5.59-5.59-5.59c-16.33,3-15.93,3.42-27.3,14.8L71.94,73.93h0A52.59,52.59,0,0,0,95.45,97.8Z"/></clipPath></defs><title>ikon-skifeller</title><g id="Layer_2" data-name="Layer 2"><g id="HVITT"><path class="cls-2" d="M120.58,37.79c-16.33,3-15.93,3.42-27.3,14.8L71.93,73.93"/><polyline class="cls-2" points="126.17 43.38 120.58 37.79 122.63 35.73 128.22 41.33"/><path class="cls-2" d="M132.49,37.06l-6-6c-1.51-1.51-3.55-2.31-5.06-.8s-.31,4,1.2,5.46"/><path class="cls-2" d="M128.22,41.33"/><path class="cls-2" d="M131.76,49c-3,16.33-3.42,15.93-14.8,27.3L95.62,97.62"/><polyline class="cls-2" points="126.17 43.38 131.76 48.97 133.82 46.92 128.22 41.33"/><path class="cls-2" d="M132.49,37.06l6,6c1.51,1.51,2.31,3.55.8,5.06s-4,.31-5.46-1.2"/><path class="cls-2" d="M128.22,41.33"/><g class="cls-3"><path class="cls-4" d="M76,30s1.26-.12,3.46-.29l4-.28,2.44-.18c.86-.06,1.77,0,2.71,0H144c.94,0,1.85-.06,2.71,0l2.44.17,4,.28,3.46.28-3.46.28-4,.28-2.44.17c-.86.07-1.77,0-2.71,0H88.63c-.94,0-1.85.05-2.71,0l-2.44-.18-4-.28C77.3,30.17,76,30,76,30Z"/><path class="cls-4" d="M25.46,37s1.26-.12,3.46-.29l4-.28,2.44-.18c.86-.06,1.77,0,2.71,0H93.46c.94,0,1.85-.06,2.71,0l2.44.17,4,.28L106,37l-3.46.28-4,.28-2.44.17c-.86.07-1.77,0-2.71,0H38c-.94,0-1.85.05-2.71,0l-2.44-.18-4-.28C26.72,37.08,25.46,37,25.46,37Z"/><path class="cls-4" d="M96,43.87s1.26-.12,3.46-.29l4-.28,2.44-.18c.86-.06,1.77,0,2.71,0H164c.94,0,1.85-.06,2.71,0l2.44.17,4,.28,3.46.28-3.46.28-4,.28-2.44.17c-.86.07-1.77,0-2.71,0H108.58c-.94,0-1.85.05-2.71,0l-2.44-.18-4-.28C97.25,44,96,43.87,96,43.87Z"/><path class="cls-4" d="M43.81,50.78s1.26-.12,3.46-.29l4-.28L53.69,50c.86-.06,1.77,0,2.71,0h55.41c.94,0,1.85-.06,2.71,0l2.44.17,4,.28,3.46.28-3.46.28-4,.28-2.44.17c-.86.07-1.77,0-2.71,0H56.4c-.94,0-1.85.05-2.71,0l-2.44-.18-4-.28C45.07,50.91,43.81,50.78,43.81,50.78Z"/><path class="cls-4" d="M82.52,57.69s1.26-.12,3.46-.29l4-.28,2.44-.18c.86-.06,1.77,0,2.71,0h55.41c.94,0,1.85-.06,2.71,0l2.44.17,4,.28,3.46.28-3.46.28-4,.28-2.44.17c-.86.07-1.77,0-2.71,0H95.12c-.94,0-1.85.05-2.71,0L90,58.27,86,58C83.78,57.82,82.52,57.69,82.52,57.69Z"/><path class="cls-4" d="M29.64,64.61s1.26-.12,3.46-.29l4-.28,2.44-.18c.86-.06,1.77,0,2.71,0H97.64c.94,0,1.85-.06,2.71,0l2.44.17,4,.28,3.46.28-3.46.28-4,.28-2.44.17c-.86.07-1.77,0-2.71,0H42.23c-.94,0-1.85.05-2.71,0l-2.44-.18-4-.28C30.9,64.73,29.64,64.61,29.64,64.61Z"/><path class="cls-4" d="M82.52,71.52s1.26-.12,3.46-.29l4-.28,2.44-.18c.86-.06,1.77,0,2.71,0h55.41c.94,0,1.85-.06,2.71,0l2.44.17,4,.28,3.46.28-3.46.28-4,.28-2.44.17c-.86.07-1.77,0-2.71,0H95.12c-.94,0-1.85.05-2.71,0L90,72.09l-4-.28C83.78,71.64,82.52,71.52,82.52,71.52Z"/><path class="cls-4" d="M25.46,78.43s1.26-.12,3.46-.29l4-.28,2.44-.18c.86-.06,1.77,0,2.71,0H93.46c.94,0,1.85-.06,2.71,0l2.44.17,4,.28,3.46.28-3.46.28-4,.28-2.44.17c-.86.07-1.77,0-2.71,0H38c-.94,0-1.85.05-2.71,0L32.89,79l-4-.28C26.72,78.55,25.46,78.43,25.46,78.43Z"/><path class="cls-4" d="M74.72,85.34s1.26-.12,3.46-.29l4-.28,2.44-.18c.86-.06,1.77,0,2.71,0h55.41c.94,0,1.85-.06,2.71,0l2.44.17,4,.28,3.46.28-3.46.28-4,.28-2.44.17c-.86.07-1.77,0-2.71,0H87.31c-.94,0-1.85.05-2.71,0l-2.44-.18-4-.28C76,85.47,74.72,85.34,74.72,85.34Z"/><path class="cls-4" d="M26.4,92.26s1.26-.12,3.46-.29l4-.28,2.44-.18c.86-.06,1.77,0,2.71,0H94.4c.94,0,1.85-.06,2.71,0l2.44.17,4,.28,3.46.28-3.46.28-4,.28L97.11,93c-.86.07-1.77,0-2.71,0H39c-.94,0-1.85.05-2.71,0l-2.44-.18-4-.28C27.66,92.38,26.4,92.26,26.4,92.26Z"/><path class="cls-4" d="M60.89,99.17s1.26-.12,3.46-.29l4-.28,2.44-.18c.86-.06,1.77,0,2.71,0h55.41c.94,0,1.85-.06,2.71,0l2.44.17,4,.28,3.46.28-3.46.28-4,.28-2.44.17c-.86.07-1.77,0-2.71,0H73.49c-.94,0-1.85.05-2.71,0l-2.44-.18-4-.28C62.15,99.29,60.89,99.17,60.89,99.17Z"/><path class="cls-4" d="M0,106.08s1.26-.12,3.46-.29l4-.28,2.44-.18c.86-.06,1.77,0,2.71,0H68c.94,0,1.85-.06,2.71,0l2.44.17,4,.28,3.46.28-3.46.28-4,.28-2.44.17c-.86.07-1.77,0-2.71,0H12.59c-.94,0-1.85.05-2.71,0l-2.44-.18-4-.28C1.26,106.2,0,106.08,0,106.08Z"/></g><rect class="cls-4" x="119.29" y="40.9" width="15.82" height="2.9" transform="translate(67.2 -77.54) rotate(45)"/><circle class="cls-2" cx="117.89" cy="51.94" r="51.19"/></g></g></svg>